PathFileType	4	(X/Y/Z)	Run_500 02
DataRate	CameraRate	NumFrames	NumMarkers	Units	OrigDataRate	OrigDataStartFrame	OrigNumFrames
120	120	4	42	mm	120	212	128
Frame#	Time	LASI			RASI			LPSI			RPSI			RTH1			RTH2			RTH3			LTH1			LTH2			LTH3			RTB1			RTB2			LTB1			LTB2			LTB3			RCAL			RTOE			RMT5			LCAL			LTOE			LMT5			LACR			RACR			CLAV			C7			RUA1			RUA2			RUA3			RLEL			RMEL			LUA1			LUA2			LUA3			LLEL			LMEL			RFAsuperior			RFAradius			RFAulna			LFAsuperior			LFAradius			LFAulna			RTB3			
		X1	Y1	Z1	X2	Y2	Z2	X3	Y3	Z3	X4	Y4	Z4	X5	Y5	Z5	X6	Y6	Z6	X7	Y7	Z7	X8	Y8	Z8	X9	Y9	Z9	X10	Y10	Z10	X11	Y11	Z11	X12	Y12	Z12	X13	Y13	Z13	X14	Y14	Z14	X15	Y15	Z15	X16	Y16	Z16	X17	Y17	Z17	X18	Y18	Z18	X19	Y19	Z19	X20	Y20	Z20	X21	Y21	Z21	X22	Y22	Z22	X23	Y23	Z23	X24	Y24	Z24	X25	Y25	Z25	X26	Y26	Z26	X27	Y27	Z27	X28	Y28	Z28	X29	Y29	Z29	X30	Y30	Z30	X31	Y31	Z31	X32	Y32	Z32	X33	Y33	Z33	X34	Y34	Z34	X35	Y35	Z35	X36	Y36	Z36	X37	Y37	Z37	X38	Y38	Z38	X39	Y39	Z39	X40	Y40	Z40	X41	Y41	Z41	X42	Y42	Z42	

207	1.883333	926.778533	1041.986576	-754.451395	941.942008	1022.096026	-497.114902	747.361994	1068.364108	-656.8900190000001	754.7031449999999	1057.328375	-575.997477	868.6017409999999	842.416292	-458.572674	904.065349	732.575746	-465.55427	828.726578	629.326777	-505.031986	915.54765	838.872284	-803.825888	1020.883891	748.490727	-788.482986	1008.465512	625.511636	-754.164236	738.960269	489.070982	-582.129002	687.273982	541.912502	-517.496215	1095.010162	414.715897	-667.873638	1056.474509	327.115908	-712.7194	1048.67422	220.110307	-634.941022	514.333723	738.6028	-618.177647	370.160182	556.678602	-599.783539	388.125438	637.575965	-521.21711	912.087478	101.02767	-613.502603	1147.126536	76.628951	-600.121616	1072.915328	55.169107	-690.904729	941.39454	1475.824998	-825.988516	976.311639	1516.360709	-486.309207	1006.482985	1440.520775	-622.257712	879.622265	1535.355043	-647.101773	939.776581	1424.852522	-396.366539	914.854866	1339.403633	-387.410684	848.422833	1361.452625	-349.366998	800.8871789999999	1241.491193	-289.859575	753.416701	1234.935366	-360.798221	910.199954	1396.093308	-905.92276	912.644242	1325.471401	-909.085369	815.703945	1326.419282	-915.9730960000001	794.487771	1179.0674	-998.231704	742.348271	1167.376958	-928.496359	897.074221	1196.208119	-319.92605	1013.343363	1145.331384	-450.484262	1011.395478	1103.031092	-391.558912	881.4494110000001	1157.363273	-966.982801	1006.68871	1146.39603	-829.633248	1009.283965	1082.52584	-862.451502	632.551329	457.504561	-589.012776	
208	1.891667	921.361769	1038.517522	-755.744859	938.043895	1016.614328	-496.821375	743.947825	1064.802376	-654.770621	750.843018	1052.90357	-574.467846	872.19598	836.9772369999999	-459.508215	916.279095	729.721531	-466.555222	847.122289	621.665393	-504.13889	905.844566	835.636318	-804.199876	1010.331195	746.731804	-790.481888	998.765798	623.104105	-756.942237	767.870129	484.931208	-581.680924	716.275579	536.073128	-515.2953690000001	1076.94936	410.084535	-669.104238	1032.688391	325.117307	-714.449118	1017.668361	218.330001	-636.877118	540.1040850000001	734.149171	-614.151242	400.496511	549.45976	-594.913349	418.710211	629.187943	-515.495471	871.9970520000001	102.303035	-613.900952	1106.743934	75.84310600000001	-600.1643319999999	1031.984292	54.862469	-690.839804	942.845105	1468.611754	-827.551079	972.452309	1511.259688	-485.277912	1006.617896	1435.202938	-621.1229499999999	880.166439	1531.217712	-649.3374250000001	933.98626	1418.522465	-396.442711	905.959261	1332.798816	-390.385648	839.938522	1356.269311	-351.960472	786.84945	1238.150718	-294.158724	743.024335	1231.728441	-366.835012	917.191512	1385.014337	-908.076405	922.0956179999999	1313.140314	-907.743503	826.627091	1311.550055	-921.244879	813.593488	1163.113179	-1000.578077	758.5072740000001	1150.192738	-932.9077109999999	881.566095	1185.408635	-317.764679	999.599872	1120.412288	-439.581384	993.653044	1083.10778	-377.814069	899.581868	1142.642568	-965.535252	1020.390355	1134.138424	-825.457031	1025.496541	1071.029311	-859.820811	661.3874530000001	451.784515	-586.761044	
209	1.9	916.740751	1036.447412	-757.044433	934.03788	1012.475037	-496.280505	740.974141	1062.22059	-652.743058	747.079329	1049.642474	-572.7857739999999	876.1015650000001	833.2705079999999	-460.054095	930.600326	729.167773	-467.802343	867.803871	617.018612	-502.146774	896.541955	832.5531	-804.684806	999.675325	744.144984	-791.079163	984.956832	618.761895	-758.6438010000001	798.177159	481.980034	-581.541529	745.934967	530.639886	-513.619914	1055.899422	402.21682	-671.7148570000001	1005.357221	319.967806	-716.577171	984.9073990000001	214.018617	-639.208487	563.013618	727.4438	-609.263811	431.737267	536.650611	-590.744227	448.110922	615.654843	-510.42487	832.0716159999999	103.178721	-614.711676	1066.61565	74.521638	-600.78909	991.1847739999999	53.749246	-691.333568	944.729207	1462.188338	-828.720983	968.73834	1506.743066	-484.725876	1006.146625	1430.848725	-620.131833	880.451716	1527.654529	-651.395854	928.332776	1413.715735	-396.917956	897.748641	1327.798184	-393.465169	831.863175	1352.320406	-355.119675	773.07007	1236.21962	-298.551885	732.787296	1229.814298	-372.829944	924.062846	1375.710244	-908.900107	932.048376	1302.700395	-905.706759	838.371268	1299.338094	-924.432429	833.458342	1149.377622	-1001.348435	775.03957	1134.875754	-936.361724	866.197989	1177.534868	-316.191787	984.141103	1098.950572	-429.024443	974.473801	1066.666979	-364.843546	919.396615	1131.587511	-961.397322	1034.932024	1124.758351	-820.365372	1042.56646	1062.383313	-856.146509	690.887141	446.466606	-585.03457	
210	1.908333	912.7693	1034.98994	-758.173593	930.31139	1009.513565	-495.951345	738.040058	1060.701373	-651.111617	743.54405	1047.347557	-571.352037	880.336142	830.983629	-460.436238	946.217116	731.232852	-469.149514	890.357131	615.483056	-499.573321	887.957113	829.838725	-805.649253	989.013853	738.924024	-791.53733	967.915785	612.497037	-759.171817	829.117316	480.44146	-581.626746	775.756682	525.794212	-512.572634	1032.109825	392.333983	-674.196332	976.069416	312.560713	-718.003789	950.744595	208.438226	-640.509646	583.021827	718.112266	-603.737896	463.485693	518.9335139999999	-587.498204	476.195535	597.464129	-506.153041	792.604842	103.968014	-615.391079	1026.90033	72.919611	-601.2960890000001	950.863051	52.703782	-692.036328	947.625501	1456.961913	-829.37435	965.328945	1502.797907	-484.467826	1005.100349	1427.071684	-619.094182	880.185567	1524.507102	-653.070217	922.728783	1410.249576	-397.60054	889.961349	1324.667946	-395.758862	823.824024	1350.244048	-358.521666	759.469145	1236.328559	-302.585468	722.235321	1229.791807	-378.168218	930.869633	1368.298606	-908.11684	942.186428	1294.7068	-903.1655	849.960795	1290.112118	-924.742489	852.96596	1138.583787	-1000.546702	791.424408	1122.157042	-938.607239	851.169245	1173.336645	-315.233149	967.640144	1082.797752	-419.431084	954.018727	1054.350738	-353.919648	939.64493	1124.773479	-955.499128	1049.890253	1119.352544	-814.612873	1060.018235	1057.501143	-851.203936	720.568203	441.725329	-583.937009	
